<?xml version="1.0" encoding="utf-8"?>
<!-- Generator: Adobe Illustrator 24.1.2, SVG Export Plug-In . SVG Version: 6.00 Build 0)  -->
<svg version="1.1" id="Livello_1" xmlns="http://www.w3.org/2000/svg" xmlns:xlink="http://www.w3.org/1999/xlink" x="0px" y="0px"
	 viewBox="0 0 47.5 48.4" style="enable-background:new 0 0 47.5 48.4;" xml:space="preserve">
<g id="Livello_2_1_">
	<g id="Livello_1-2">
		<path d="M47.5,26.3c0.1,1.2-0.5,2.3-1.5,2.9c-3.2,1.7-6.4,3.6-9.6,5.1c-4.5,2.2-9,4.2-13.5,6.2c-2,0.9-3.9,1.7-5.9,2.7
			c-4.2,2-8.5,3.7-12.9,5.1c-1.2,0.5-2.5-0.1-3-1.3c-0.1-0.3-0.2-0.5-0.2-0.8c0-2.5-0.2-5-0.2-7.4c0-1,0.6-2,1.6-2.4
			c2-0.8,4-1.6,6-2.3c1.9-0.7,3.8-1,5.7-1.8c5.7-2.2,11.1-5.1,16.7-7.8c-0.4-0.5-0.6-1.1-1-1.2c-2.1-1-4.2-2-6.4-2.7
			c-6.1-2.2-11.9-4.9-17.6-8C-1.4,9,0.2,11.1,0.1,2.9c0-0.3,0-0.7,0.1-1c0-0.2,0.1-0.3,0.1-0.5c0.3-1.1,1.4-1.7,2.5-1.4
			c0.1,0,0.2,0.1,0.3,0.1C6,1.4,8.8,2.8,11.7,4c4.9,2,9.8,4,14.7,6c4.4,1.9,8.8,3.9,13.1,5.9c2,0.9,3.9,1.9,5.8,2.8
			c1.3,0.5,2.1,1.8,2,3.1C47.4,23.3,47.5,24.8,47.5,26.3z M38.8,19.8c-6-2.9-12.1-5.4-18.4-7.6c-3.3-1-6.5-2.3-9.6-3.8
			c-2-1.1-4.2-1.9-6.5-2.2C4.1,6.3,4,6.7,4.3,6.7c3,0.9,5.3,2.7,8.1,4.1c2.5,1.1,5,2.1,7.6,2.9c6.2,2.3,12.3,4.5,18.5,6.6
			C38.9,20.5,39.1,20,38.8,19.8z"/>
	</g>
</g>
</svg>
