<svg xmlns="http://www.w3.org/2000/svg" width="104.42" height="48.43" viewBox="0 0 104.42 48.43">
  <defs>
    <style>
      .cls-1 {
        fill: #fff;
      }
    </style>
  </defs>
  <g id="Livello_2" data-name="Livello 2">
    <g id="Livello_1-2" data-name="Livello 1">
      <g>
        <path class="cls-1" d="M47.53,26.3A2.89,2.89,0,0,1,46,29.17c-3.21,1.71-6.36,3.55-9.63,5.14-4.46,2.17-9,4.16-13.52,6.22-1.95.9-3.94,1.73-5.87,2.68a98.41,98.41,0,0,1-12.9,5.08A2.32,2.32,0,0,1,.89,46.2c0-2.48-.19-5-.21-7.44A2.49,2.49,0,0,1,2.24,36.4c2-.84,4-1.6,6-2.29,1.87-.65,3.84-1,5.68-1.76,5.68-2.24,11.06-5.14,16.72-7.84-.42-.53-.62-1.06-1-1.23-2.11-1-4.21-2-6.4-2.7A132.2,132.2,0,0,1,5.64,12.63C-1.44,9,.17,11.06.13,2.91a8.28,8.28,0,0,1,.09-1,4.21,4.21,0,0,1,.12-.48A2,2,0,0,1,3.09.17C6,1.44,8.81,2.76,11.71,4c4.88,2,9.82,4,14.69,6,4.41,1.89,8.76,3.91,13.12,5.91,1.95.9,3.86,1.91,5.82,2.79a3.24,3.24,0,0,1,2,3.15C47.38,23.32,47.48,24.81,47.53,26.3Zm-8.72-6.48a171.47,171.47,0,0,0-18.35-7.58,76.86,76.86,0,0,1-9.65-3.77A18.43,18.43,0,0,0,4.35,6.26c-.28,0-.32.4-.07.47,3,.9,5.34,2.72,8.11,4.13A72,72,0,0,0,20,13.79c6.17,2.32,12.3,4.47,18.54,6.59C38.9,20.49,39.12,20,38.81,19.82Z"/>
        <path class="cls-1" d="M104.42,26.3a2.89,2.89,0,0,1-1.56,2.87c-3.21,1.71-6.36,3.55-9.63,5.14-4.46,2.17-9,4.16-13.52,6.22-1.95.9-3.94,1.73-5.87,2.68a98.41,98.41,0,0,1-12.9,5.08,2.32,2.32,0,0,1-3.16-2.09c0-2.48-.19-5-.21-7.44a2.49,2.49,0,0,1,1.56-2.36c2-.84,4-1.6,6-2.29,1.87-.65,3.84-1,5.68-1.76,5.68-2.24,11.06-5.14,16.72-7.84-.42-.53-.62-1.06-1-1.23-2.11-1-4.21-2-6.4-2.7a132.2,132.2,0,0,1-17.63-7.95C55.45,9,57.06,11.06,57,2.91a8.28,8.28,0,0,1,.09-1,4.21,4.21,0,0,1,.12-.48A2,2,0,0,1,60,.17C62.85,1.44,65.7,2.76,68.6,4c4.88,2,9.82,4,14.69,6,4.41,1.89,8.76,3.91,13.12,5.91,2,.9,3.86,1.91,5.82,2.79a3.24,3.24,0,0,1,2,3.15C104.27,23.32,104.37,24.81,104.42,26.3ZM95.7,19.82a171.47,171.47,0,0,0-18.35-7.58A76.86,76.86,0,0,1,67.7,8.47a18.43,18.43,0,0,0-6.46-2.21c-.28,0-.32.4-.07.47,3,.9,5.33,2.72,8.11,4.13a72,72,0,0,0,7.64,2.93c6.17,2.32,12.3,4.47,18.54,6.59C95.79,20.49,96,20,95.7,19.82Z"/>
      </g>
    </g>
  </g>
</svg>
