<svg xmlns="http://www.w3.org/2000/svg" width="579.95" height="271.16" viewBox="0 0 579.95 271.16">
  <g id="Livello_2" data-name="Livello 2">
    <g id="Livello_1-2" data-name="Livello 1">
      <g>
        <g>
          <path d="M227.35,109c.08,3.29-.58,3.88-3.81,3.92-2.22,0-4.44.1-6.66.11q-10,0-20,0a19.82,19.82,0,0,1-3.61-.27,2.06,2.06,0,0,1-1.16-1.22c-.62-1.75-.09-2.75,1.51-3.25a36.71,36.71,0,0,0,4-1.32,4.56,4.56,0,0,0,2.65-5,3.94,3.94,0,0,0-.08-.6c-1.23-3.85-2.43-7.7-3.73-11.53a2.45,2.45,0,0,0-2.39-1.55c-3.43-.14-6.86-.32-10.3-.37-3.62,0-7.28-.33-11.08,1-1.68,2.09-2.31,4.87-3.12,7.55a45.92,45.92,0,0,0-1.23,5.31,10.71,10.71,0,0,0,0,3,3.1,3.1,0,0,0,2.73,2.81c1.4.18,2.81.25,4.22.39a1.6,1.6,0,0,1,1.32,1.73,25.55,25.55,0,0,1-.71,2.72,4.78,4.78,0,0,1-.83.23c-6.26,0-12.52.09-18.77.11a2,2,0,0,1-2.19-1.68c-.18-1.23-.27-2.61,1-3.21,3.86.29,5.58-4.93,7.13-8.6,2.51-6,4.38-12.15,6.68-18.19,3.8-10,7.51-20,10.58-30.31.35-1.16.75-2.31,1.05-3.48A4,4,0,0,0,179.17,43a24.4,24.4,0,0,1-2.39-1.84,2.31,2.31,0,0,1-.33-2.29,1.41,1.41,0,0,1,1.37-1,88.83,88.83,0,0,1,18.16,0c1,.5,1.17,1.56,1.52,2.47,2.91,7.54,5.92,15,8.64,22.65,2.24,6.27,4,12.71,6.22,19s4.7,12.48,7,18.73a8.75,8.75,0,0,0,5.8,5.73,16.64,16.64,0,0,1,1.7.78A7.34,7.34,0,0,1,227.35,109ZM192.56,79.56c-2.64-8-4.29-16.38-7.18-24.59-.69.35-1.43.49-1.58.86a207.72,207.72,0,0,0-7.68,22.93,1,1,0,0,0,0,.6c.18.33.39.83.67.89a44.37,44.37,0,0,0,15.53.66C192.43,80.32,192.67,79.88,192.56,79.56Zm19.18,24.64A286.39,286.39,0,0,0,201,74.39c-4.16-9.66-6.38-20.3-11.5-29.53-.11-.19-.44-.06-.36.15,3.49,9.34,5.88,19.13,9.85,28.27,4.45,10.24,8.23,20.65,12.19,31.08C211.28,104.73,211.86,104.58,211.74,104.2Z"/>
          <path d="M300.66,94.67c-.24,3.48-.78,10.44-1.09,14a12,12,0,0,1-.42,2.38,2.35,2.35,0,0,1-2,1.47c-3.94.1-7.88.12-11.82.17-7.47.1-14.94.21-22.41.29-2.63,0-5.25,0-7.88,0q-8.34-.09-16.68-.23l-2.77,0a2.12,2.12,0,0,1-.91-1.11,2.25,2.25,0,0,1-.3-.95,3.68,3.68,0,0,1,.28-1.68,1.94,1.94,0,0,1,1.12-1.46c1.08-.46,2.17-.89,3.25-1.32l.23-.12a7,7,0,0,0,3.21-3.48,60.25,60.25,0,0,0,.22-6.44c-.37-7.87,0-15.74.25-23.61.18-5.78.07-11.58.05-17.36,0-2-.18-4-.37-6.05a6.69,6.69,0,0,0-4.16-5.55,18.73,18.73,0,0,0-2.31-.68A2.82,2.82,0,0,1,234.62,39a1.46,1.46,0,0,1,.83-.75,7.69,7.69,0,0,1,1.8-.16l7.27-.08c6.27,0,12.53-.07,18.79-.06,1.79,0,3.63-.13,5.25.7a5.35,5.35,0,0,1-.13,4.36c-1.06.39-2.16.88-3.31,1.21a4.36,4.36,0,0,0-3.24,3.95,19.56,19.56,0,0,0-.26,2.4c-.19,7.19-.56,14.37-1.16,21.54a56,56,0,0,0-.16,6.08c.15,6.1-.12,12.19-.05,18.29.25,1.19.18,2.37.36,3.5a14.1,14.1,0,0,0,.72,3.53c.66,1.48,1.67,2.85,3.58,2.81,5-.11,10.11-.1,15.14-.47a25.78,25.78,0,0,0,6.4-1.74,9,9,0,0,0,5.68-5.9,28.24,28.24,0,0,0,1-4,2,2,0,0,1,2-1.66l3.65,0A1.92,1.92,0,0,1,300.66,94.67Zm-47.77,12.18c-.34-10.75-.56-21.56-.72-32.33C252,64.44,253.63,54,251.47,44c-.05-.22-.43-.18-.41.06.72,10.61-.78,21.2-.68,31.82,0,5.52.31,11,.55,16.54.21,4.78.15,9.83,1.19,14.5A.39.39,0,0,0,252.89,106.85Z"/>
          <path d="M380.83,112.74a1.06,1.06,0,0,1-1,1,60.64,60.64,0,0,1-9.53.33c-6.07-.63-12.13-.58-18.18-.67-1.81,0-3.42-.09-5.37-.09-.82,0-1.4.09-1.46-.83s-.08-3.71.55-3.91a20.18,20.18,0,0,1,2.91-.27c3.55-.44,3.8-1.59,2.38-4.3a26.32,26.32,0,0,0-1.77-3.17c-2.5-3.44-5.1-6.79-7.59-10.22-1.78-2.46-3.44-5-5.17-7.49-.91-1.31-1.86-2.6-3.12-4.38a48.86,48.86,0,0,0-5.74,4.81c0,.32,0,.64,0,1,0,4-.14,8.08-.09,12.12a34.65,34.65,0,0,0,.55,6,5.07,5.07,0,0,0,4.4,4.4c.6.1,1.21.11,1.8.23,1.5.3,1.95.91,1.93,2.53,0,.4-.13.8-.15,1.2a1.32,1.32,0,0,1-1.15,1.21,9.55,9.55,0,0,1-2.4.26q-14.83.17-29.69.29c-1.26-.79-1.08-2-1-3.25a2.11,2.11,0,0,1,1.19-2c1.67-.72,3.39-1.31,5-2.07a2.75,2.75,0,0,0,1.63-2.39c.13-2.22.33-4.45.25-6.67a175.12,175.12,0,0,1,0-18.33c.51-7.61.33-15.25.31-22.88,0-2-.19-4-.37-6a6.7,6.7,0,0,0-4.16-5.55,19.29,19.29,0,0,0-2.31-.69A2.82,2.82,0,0,1,302,39.06a1.52,1.52,0,0,1,.83-.75,7.19,7.19,0,0,1,1.8-.16c2.43,0,4.85-.07,7.28-.08,6.26,0,12.52-.07,18.79-.06,1.79,0,3.63-.13,5.25.69a5.37,5.37,0,0,1-.13,4.37c-1.07.39-2.17.87-3.31,1.21a4.37,4.37,0,0,0-3.25,3.94,16.63,16.63,0,0,0-.25,3.06,83.05,83.05,0,0,1-.74,17.34,44.51,44.51,0,0,0-.56,6.42c5-4.69,10-9.34,14.92-14.12,3.77-3.67,7.29-7.58,10.91-11.4a28.65,28.65,0,0,0,1.91-2.34A2.08,2.08,0,0,0,355,44c-.67-.43-1.45-.71-2.13-1.15a2.29,2.29,0,0,1-.61-2.72,1.75,1.75,0,0,1,.74-.83,2.21,2.21,0,0,1,1.15-.29,65,65,0,0,0,11.48-.84,27,27,0,0,1,9,.49,1.91,1.91,0,0,1,1.44,1.76c.32,2.34-.42,3.68-2.69,3.86-6.28.52-10.8,4.32-14.4,9.59a33,33,0,0,1-9.39,8.67,11.93,11.93,0,0,0-2.46,2.71,5.94,5.94,0,0,0,.39,1.42c2.58,3.94,5.16,7.89,7.85,11.76,1.07,1.52,2.21,3,3.36,4.45a96.64,96.64,0,0,1,9,14c1.77,3.32,4.41,5.74,7.06,8.23,1.28,1.21,2.35,1.82,5.63,2.14C380.91,107.3,380.88,110.94,380.83,112.74ZM319.63,106c.12-20.42-.35-40.86-.58-61.28a.18.18,0,0,0-.36,0c-.73,20.38-2.08,41,.41,61.28C319.14,106.35,319.63,106.37,319.63,106Zm42.73.15c-3.88-6.54-7.91-12.77-12.12-19.09-3.42-5.13-6.5-10.67-11.26-14.7a.24.24,0,0,0-.34.34c4.26,5,7.33,10.67,10.91,16.1,4,6,8.2,11.77,12.47,17.55C362.17,106.56,362.49,106.39,362.36,106.17Z"/>
          <path d="M424.1,110.22c0,.4-.13.8-.15,1.2a1.34,1.34,0,0,1-1.15,1.22,10,10,0,0,1-2.4.26l-29.68.29c-1.27-.8-1.09-2.06-1-3.26a2.12,2.12,0,0,1,1.2-2c1.66-.71,3.38-1.31,5-2.07a2.74,2.74,0,0,0,1.63-2.39c.13-2.22.33-4.45.25-6.66-.26-7.27-.13-14.53.18-21.81.27-6.46.14-12.93.12-19.4,0-2-.19-4-.37-6a6.7,6.7,0,0,0-4.16-5.55,19.26,19.26,0,0,0-2.31-.68,2.83,2.83,0,0,1-1.49-3.94,1.52,1.52,0,0,1,.85-.75,7.1,7.1,0,0,1,1.79-.15c2.42,0,4.85-.07,7.27-.08q9.39-.06,18.79-.07c1.79,0,3.63-.13,5.25.7a5.35,5.35,0,0,1-.13,4.36c-1.06.4-2.17.88-3.31,1.21a4.38,4.38,0,0,0-3.25,4A19.49,19.49,0,0,0,416.8,51c-.19,7.07-.55,14.13-1.14,21.18-.35,4.22-.11,8.48-.15,12.73,0,4-.14,8.08-.09,12.13a33.68,33.68,0,0,0,.55,6,5.07,5.07,0,0,0,4.4,4.4c.6.1,1.21.11,1.8.23C423.66,108,424.12,108.6,424.1,110.22ZM408,75.7c-.32-10.38-.26-21-1.25-31.3a.24.24,0,0,0-.47,0c-1,10.55-.17,21.44,0,32,.07,5.34.05,10.68.19,16,.11,4.3-.21,8.83.53,13.08.06.33.61.25.59-.08-.22-4.84.52-9.62.63-14.46C408.33,85.89,408.19,80.79,408,75.7Z"/>
          <path d="M508.81,40.66a1.81,1.81,0,0,1-1.23,1.86,41.22,41.22,0,0,0-4,1.39,5.86,5.86,0,0,0-3.49,4.65,21.67,21.67,0,0,0-.16,3c0,3.24,0,7-.06,10.27-.17,10.71-.36,21.43-.51,32.15,0,2.42,0,4.85.13,7.27.12,2.62.43,5.24.55,7.87.18,4.08-.2,4.43-4.41,4.38-1,0-2-.07-3-.13a2.77,2.77,0,0,1-2.18-1.31,104.55,104.55,0,0,0-9-12,175.47,175.47,0,0,1-12.05-16,217.25,217.25,0,0,0-16.51-21.88c-1.12-1.3-1.7-3-2.71-4.35-.21-.3-1-.18-1.64-.27-.45,14-1,27.7-.39,41.45,0,.81,0,1.62.13,2.42a5.17,5.17,0,0,0,4.57,4.88c1.19.18,2.41.24,3.61.37a2,2,0,0,1,1.47,1.71,19.55,19.55,0,0,1,0,2.42,1.72,1.72,0,0,1-1.48,1.65c-1.19.17-14.91.06-20.57-.15A11.52,11.52,0,0,1,434,112a.91.91,0,0,1-.7-.88l.06-2.84a1.28,1.28,0,0,1,1.21-1.26,18.7,18.7,0,0,0,4.92-.68c2.31-1.1,2.73-3.23,3-5.72a25.64,25.64,0,0,0,0-3.82,302.24,302.24,0,0,1,.05-35.23c.21-3.42,0-6.87-.13-10.31a34.21,34.21,0,0,0-.39-3.62,4.31,4.31,0,0,0-3.44-3.78,17.33,17.33,0,0,0-3.56-.67c-3.19-.15-3-1.47-2.86-4a2,2,0,0,1,1.51-1.68c.6-.05,1.2-.13,1.81-.13h19.56a3.12,3.12,0,0,1,2.37,1.09c.28.33.57.67.84,1,1.09,1.45,2.21,2.89,3.18,4.43,5.17,8.23,11.19,15.84,16.87,23.7,2.85,3.93,5.58,7.94,8.4,11.88,1.41,2,2.89,3.9,4.41,5.78a5.53,5.53,0,0,0,1.58.91,8,8,0,0,0,.53-1.82c.15-4.12.36-8.25.17-12.37a59.61,59.61,0,0,1,.3-8.86,17.33,17.33,0,0,0,.09-3.14c-.25-3.38-.6-7.31-.92-10.69a11.55,11.55,0,0,0-.17-1.2,5.87,5.87,0,0,0-4.1-4.82c-1.32-.43-2.67-.77-3.82-1.1a2.78,2.78,0,0,1-.69-2.44c.19-1.65.78-2.33,2.16-2.35,2.63,0,5.26-.06,7.88,0,3.84.05,7.69.12,11.53.25a14,14,0,0,1,2.07.31,1.24,1.24,0,0,1,1,1.1A14,14,0,0,1,508.81,40.66ZM488.73,96.4c.25.23.73-.08.5-.38-12-15.81-23.62-31.85-35.84-47.47-.12-.16-.38.05-.28.22q8.22,13.15,17.51,25.62c5.57,7.48,11.25,15.66,18.11,22Z"/>
          <path d="M573.81,82.72v31a5.12,5.12,0,0,0,4.06.82.88.88,0,0,1,1,.88v1a.88.88,0,0,1-.9.89l-5.83,0c-.71.08-1.61,0-2.59,0l-3.66,0c-.48,0-.94,0-1.37,0h-.09c-1.74-.14-2.94-.67-2.77-2.64.12-1.31.23-2.88.33-4.6-.43.24-.86.48-1.31.69-8.5,4-17.32,5.55-26.5,3.14a26.84,26.84,0,0,1-15.9-11.32,45.7,45.7,0,0,1-7.92-26.86,54.36,54.36,0,0,1,1-12.05,34.35,34.35,0,0,1,8.79-16.32c.84-.88,1.71-1.72,2.59-2.56,7.54-7.24,16.72-9.44,26.81-8.48,2.41.23,9.47,1.71,14,4.22.06.16.12.32.17.48-.3-1.32-.58-2.59-.8-3.67-.76-3.62.87-3.93,2.71-4.12l1.78-.24c1.61-.17,1.91,1.29,2.2,2.88.78,4.34,2.13,12.14,4.93,15.88,1.09,1.46-1.86,3.47-1.86,3.47a3.06,3.06,0,0,1-3.59-.74,17.52,17.52,0,0,1-3.29-5.56l-.08,0c-4.17-6-18-8.57-25.83-3.63a14.07,14.07,0,0,0-2.17,1.67c-3.24,3.39-5.82,7.1-6.67,12a85.32,85.32,0,0,0-1.33,19.92,97.68,97.68,0,0,0,1.36,13.85,38.45,38.45,0,0,0,4.36,11.24,7.67,7.67,0,0,0,5.73,4c1.4.22,2.8.43,4.2.61a13.8,13.8,0,0,0,9.22-2.3,11.37,11.37,0,0,0,5.82-8.72c.48-4,1.46-8,1.07-12a5,5,0,0,0-3.6-4.43,23.14,23.14,0,0,0-2.37-.49c-.59-.13-1.17-.31-1.74-.49a2.2,2.2,0,0,1-1.41-2.42c.07-.52,0-1.14.36-1.54s1.21-.26,1.61-.29q4.2-.37,8.42-.63h0s10.48-.85,15.68-1c1.57,0,1.48,1.24,1.5,2.81h0c0,1.49.23,2.69-1.26,2.78C575.94,80,573.81,80,573.81,82.72Zm-42.9,22.89a56.25,56.25,0,0,1-9.67-35.78c.77-8.83,2.87-19.51,10-25.42.21-.17-.06-.48-.28-.36-8,4.33-10.59,16.74-11.57,24.91a46.13,46.13,0,0,0,1.45,18.18c1.88,6.63,4.75,13.77,9.51,18.87C530.64,106.28,531.13,105.92,530.91,105.61Z"/>
        </g>
        <g>
          <path d="M79.38,177.19a1.34,1.34,0,0,1-.56.6,1.32,1.32,0,0,1-.57.12c-1.54.17-1.8,0-2-1.42-.08-.69-.1-1.38-.21-2.07a10.67,10.67,0,0,0-1.6-4.42,3.77,3.77,0,0,0-1-1.08,9.05,9.05,0,0,0-5.57-1.68,1.05,1.05,0,0,0-.93.67c-.28,4.12-.37,8.24-.32,12.37,0,1.67-.09,3.35-.13,5,0,2.57-.11,5.14-.13,7.7a5.73,5.73,0,0,0,.23,1.75c.36,1.22.22,3.27,1.58,3.41.39.05,1.24.29,1.77.32.37,0,1-.13,1.19.15a2.28,2.28,0,0,1,0,2.26,1,1,0,0,1-.47.35,2.07,2.07,0,0,1-.57.13c-2.55.19-5,.54-7.78.54-1.07,0-2.06-.26-3.14-.17a21.5,21.5,0,0,1-5.61,0c-.86-.15-1.15-.5-1.13-1.42s.2-1,.95-1.26c.19,0,.39,0,.58-.11q.56-.19,1.11-.42c1.73-.71,2.57.43,2.73-4.81.11-3.75.12-7.52,0-11.26-.08-1.76-.09-3.51-.07-5.26h0V177c0-1.56,0-3.11,0-4.66,0-1.38,0-2.77,0-4.15h0v-.15c0-.09,0-.18,0-.27a1.27,1.27,0,0,0-1.24-.71c-.41,0-12.2-.23-14-.21-6.47.06-7.79-4.62-7.47-7.55a4,4,0,0,1,3-3.67,2.25,2.25,0,0,1,2.7,1.69A2.35,2.35,0,0,1,39,160.11a9.11,9.11,0,0,1-1.18.08.76.76,0,0,0-.74,1,3.05,3.05,0,0,0,1.52,2.08,6.36,6.36,0,0,0,2.55.74c1.38.12,2.75.26,4.14.3,1.93.07,30.28-.09,32-.11,1.24,0,1.63.33,1.75,1.49a9.36,9.36,0,0,1,.08,1.18,80.42,80.42,0,0,0,.36,9.18A3.73,3.73,0,0,1,79.38,177.19Z"/>
          <path d="M118.92,172.15c-.09,2.76-.21,5.53-.15,8.3.09,4.54.31,9.08.49,13.61a17.53,17.53,0,0,0,.1,1.78,3,3,0,0,0,2,2.68l1.52.58a2.55,2.55,0,0,1,.28,1.85,1.06,1.06,0,0,1-1,.94c-3.75,0-7.51-.08-11.26-.14-1.29,0-2.57-.08-3.85-.15a1.14,1.14,0,0,1-1.1-1.16c-.08-.9.12-1.4.86-1.64,2.45-.8,3.33-2.63,3.38-5,0-2.07,0-4.15,0-6.22a15.82,15.82,0,0,0-.22-2.06,1,1,0,0,0-1-.89l-6.07-.1-6.07.1a1,1,0,0,0-1,.89,15.8,15.8,0,0,0-.21,2.06c0,2.07-.07,4.15,0,6.22,0,2.38.92,4.21,3.37,5,.74.24.94.74.87,1.64a1.15,1.15,0,0,1-1.11,1.16c-1.28.07-2.56.14-3.85.15-3.75.06-7.5.1-11.26.14a1.06,1.06,0,0,1-1-.94,2.6,2.6,0,0,1,.28-1.85l1.52-.58a3,3,0,0,0,2-2.68c.07-.59.08-1.18.1-1.78.17-4.53.39-9.07.49-13.61,0-2.77-.06-5.54-.16-8.3a9.69,9.69,0,0,0-.43-2.32,2.61,2.61,0,0,0-2-2c-.19,0-.39-.07-.58-.12-1.68-.43-1.72-.51-1.31-2.59a9.54,9.54,0,0,1,1.11-.17l13.64-.11a11.62,11.62,0,0,1,1.18,0c1.09.12,1.34.82,1.13,2a.7.7,0,0,1-.36.43c-.74.26-1.53.42-2.24.73a1.61,1.61,0,0,0-1,1.36c-.08,1-.17,2-.18,3q-.06,3.56,0,7.11A9.34,9.34,0,0,0,96,181l2,.21a8.38,8.38,0,0,1,1.4-.13l3.51.09c1.16,0,2.33-.07,3.5-.09a8.29,8.29,0,0,1,1.4.13l2-.21a8.33,8.33,0,0,0,.25-1.48q0-3.55,0-7.11c0-1-.11-2-.19-3a1.62,1.62,0,0,0-1-1.36c-.72-.31-1.5-.47-2.24-.73a.67.67,0,0,1-.36-.43c-.22-1.15,0-1.85,1.12-2a11.75,11.75,0,0,1,1.19,0l13.63.11a9.54,9.54,0,0,1,1.11.17c.42,2.08.37,2.16-1.31,2.59-.19.05-.39.08-.58.12a2.6,2.6,0,0,0-2,2A9.24,9.24,0,0,0,118.92,172.15Z"/>
          <path d="M160.46,167.09c-.09,3.06-.21,6.12-.33,9.18a.83.83,0,0,1-.64.87,1.63,1.63,0,0,1-1.43-.1.89.89,0,0,1-.29-.47c-.19-1.16-.36-2.33-.51-3.5a4.75,4.75,0,0,0-3.67-4.18,31.36,31.36,0,0,0-3.2-.68,25.94,25.94,0,0,0-3-.34,13.63,13.63,0,0,0-3.13,0c-4.31.79-3.85-.38-3.72,4.43.07,2.56.05,5.13.09,7.7a.91.91,0,0,0,.9,1c.95-.11,7-1.69,7-1.69a1.59,1.59,0,0,0,1.2-.76c.23-.32.4-.68.64-1,.11-.13.37-.07.47-.08.26,0,.42,0,.6.18a1.39,1.39,0,0,1,.08.54q-.12,3.25-.28,6.51a.66.66,0,0,1-.27.48.65.65,0,0,1-.55.07,1.84,1.84,0,0,1-.61-.6,1.76,1.76,0,0,0-1.66-1,22,22,0,0,0-7,1.7c-.32.12-.79.42-.83.74-.18,1.19-.35,10.52-.25,11.53a.93.93,0,0,0,1,.9c2.27,0,4.54.08,6.81.1.67,0,1.35,0,2-.08a8,8,0,0,0,6.65-4.23,10.26,10.26,0,0,0,1.17-4,6.41,6.41,0,0,1,.18-1.46c.07-.2.44-.37.7-.42.43-.09.93.19.95.47a9.08,9.08,0,0,1,.1,1.47c-.08,1.68-.22,3.35-.32,5s-.19,3.55-.3,5.32a1,1,0,0,1-1,.95c-1.28.15-2.55.31-3.83.36-2,.08-4,.11-5.93.1-5.14,0-10.27,0-15.41-.09-1.57,0-3.15-.19-4.72-.34a1.1,1.1,0,0,1-1-1.51,1.42,1.42,0,0,1,.47-.72,2.68,2.68,0,0,1,.82-.31,4,4,0,0,0,3.07-4.45c-.09-2.66.13-5.33.14-8,0-3.36,0-6.72,0-10.07,0-1.48,0-3,0-4.45a14.28,14.28,0,0,0-.08-2.07,2.64,2.64,0,0,0-1.79-2.18,9.13,9.13,0,0,0-1.73-.34l-.17,0-.41,0a1.18,1.18,0,0,1-1.13-1.23v0a1.17,1.17,0,0,1,1.18-1.11c6.48,0,14.12.05,15.07,0h15.93a3.79,3.79,0,0,1,1.17.13,1.13,1.13,0,0,1,.58.58A2.88,2.88,0,0,1,160.46,167.09Z"/>
        </g>
        <g>
          <path d="M381.47,227.14c0,.4-.13.8-.14,1.2a1.32,1.32,0,0,1-1.15,1.21,9.2,9.2,0,0,1-2.4.26q-14.85.16-29.69.29c-1.26-.79-1.09-2-1-3.25a2.1,2.1,0,0,1,1.19-1.95c1.67-.72,3.39-1.31,5-2.07a2.75,2.75,0,0,0,1.63-2.39c.13-2.22.34-4.45.26-6.66-.27-7.28-.14-14.54.17-21.81.27-6.46.14-12.94.12-19.4,0-2-.18-4-.37-6A6.69,6.69,0,0,0,351,161a19.1,19.1,0,0,0-2.3-.68,2.82,2.82,0,0,1-1.49-3.94,1.47,1.47,0,0,1,.84-.75,7.6,7.6,0,0,1,1.79-.16c2.42,0,4.85-.06,7.27-.08,6.27,0,12.53-.07,18.79-.06,1.8,0,3.63-.13,5.25.7a5.35,5.35,0,0,1-.13,4.36c-1.06.39-2.16.88-3.31,1.21a4.36,4.36,0,0,0-3.24,4,19.35,19.35,0,0,0-.26,2.4c-.19,7.07-.55,14.13-1.13,21.19-.35,4.22-.12,8.48-.16,12.72,0,4-.13,8.09-.08,12.13a33.5,33.5,0,0,0,.54,6,5.08,5.08,0,0,0,4.4,4.41c.6.1,1.21.11,1.81.23C381,224.91,381.49,225.52,381.47,227.14Zm-16.06-34.53c-.32-10.37-.25-21-1.25-31.29a.23.23,0,0,0-.46,0c-1,10.55-.17,21.44,0,32,.06,5.34,0,10.68.18,16,.11,4.31-.21,8.84.54,13.09.06.33.6.25.59-.08-.22-4.85.52-9.62.62-14.46C365.7,202.81,365.57,197.7,365.41,192.61Z"/>
          <path d="M466,228.1c0,.82-.13,1.66-1,2.05a4.39,4.39,0,0,1-1.71.48q-10.9.12-21.82.15a2,2,0,0,1-1.15-.24,2.68,2.68,0,0,1-1.06-1.32c-.16-.75-.3-1.91.11-2.31,1.92-1.85,1.05-3.61.25-5.53q-4.44-10.62-8.76-21.3a2.89,2.89,0,0,0-2.67-2.06c-1-.06-2-.13-3-.11-7.72.17-7.74-.85-7.47,7.58.15,4.44.53,8.87.8,13.31a4.93,4.93,0,0,0,2.92,4.29c1.8.88,3.76,1.44,5.64,2.16a2,2,0,0,1,1.32,1.84c.06,1,.11,2-.82,2.76a2,2,0,0,1-1.05.52c-3.43.12-6.88.42-10.29.22-6.27-.37-12.52,0-18.78,0a23.58,23.58,0,0,1-4.16-.48,1.74,1.74,0,0,1-1.24-1.83c0-2,.43-2.72,2-3.29a30.79,30.79,0,0,0,3.41-1.24,5.24,5.24,0,0,0,3.13-4.8c0-.4,0-.8,0-1.21q0-19.09.05-38.2c0-3.64-.1-7.27-.18-10.91a23.32,23.32,0,0,0-.18-3,4.2,4.2,0,0,0-2.87-3.59c-1.53-.53-3.11-.9-4.65-1.4-1.1-.35-1.63-1.48-1.48-3,.09-.82.75-1.72,1.39-1.77,1.41-.11,2.82-.25,4.23-.24,5.05,0,10.1.21,15.15.18,4.45,0,8.89-.2,13.33-.41A67.71,67.71,0,0,1,444,156.78a28.17,28.17,0,0,1,11,4.9,12.74,12.74,0,0,1,4,5.18,21.83,21.83,0,0,1-6.43,26.23c-1.67,1.37-3.79,2.21-6,3.45a4.18,4.18,0,0,0,0,.93c2.85,8,5.6,16,9.42,23.61.27.54.51,1.1.8,1.63a5.46,5.46,0,0,0,3.79,2.78c1.37.28,2.77.45,4.16.71A1.91,1.91,0,0,1,466,228.1ZM411,192.5c.09-10.35.75-20.9-.05-31.23a.27.27,0,0,0-.53,0c-.82,10.12-1.14,20.38-1.51,30.52-.18,5-.34,9.94-.18,14.9s1.16,9.52,1,14.39c0,.3.49.38.53.07C411.7,211.77,411,202,411,192.5Zm26.79-4.73a17,17,0,0,0,3.79-7.48,29,29,0,0,0-.59-13.16,7.82,7.82,0,0,0-6.49-5.63,24.47,24.47,0,0,0-4.2-.36,61.28,61.28,0,0,0-11.28,1,46.35,46.35,0,0,0-.37,8.24c-.09,5,0,10.07-.37,15.09-.41,5.84-.29,5.74,5.28,5.6,2.82-.08,5.64-.18,8.45-.4A8,8,0,0,0,437.83,187.77Zm10.08,33.48c-2.07-8.4-4.56-17.37-9.41-24.66-.14-.2-.54-.08-.43.19,3.18,8.19,5.8,16.64,9.34,24.68C447.54,221.75,448,221.54,447.91,221.25Zm-3.53-32.6c8.93-5.76,7.71-19.8,1.48-27.07-.19-.22-.58.07-.41.32,5.24,7.49,5.2,19.61-1.5,26.19C443.67,188.37,444,188.88,444.38,188.65Z"/>
          <path d="M538.92,159.46q-.27,9.39-.66,18.78a1.74,1.74,0,0,1-1.32,1.79,3.29,3.29,0,0,1-2.92-.21,1.71,1.71,0,0,1-.59-.95c-.39-2.39-.73-4.79-1.06-7.18-.6-4.52-3.22-7.31-7.5-8.55a58.16,58.16,0,0,0-6.55-1.38,54.14,54.14,0,0,0-6.21-.71,27.42,27.42,0,0,0-6.41.11c-8.82,1.6-7.89-.79-7.61,9.05.14,5.26.1,10.51.17,15.77a1.87,1.87,0,0,0,1.85,2c1.93-.21,14.26-3.45,14.26-3.45a3.19,3.19,0,0,0,2.45-1.57c.47-.65.82-1.39,1.31-2,.23-.28.76-.14,1-.17.52-.06.86-.08,1.23.37a3.63,3.63,0,0,1,.17,1.11c-.18,4.44-.35,8.88-.57,13.31a1.53,1.53,0,0,1-.57,1,1.31,1.31,0,0,1-1.13.12,3.74,3.74,0,0,1-1.23-1.21,3.6,3.6,0,0,0-3.41-2.07,45.24,45.24,0,0,0-14.26,3.47c-.65.26-1.61.87-1.7,1.51-.38,2.45-.71,21.54-.52,23.61a1.9,1.9,0,0,0,2,1.83q7,.14,13.94.2c1.38,0,2.76-.07,4.13-.15a16.43,16.43,0,0,0,13.61-8.67,20.46,20.46,0,0,0,2.39-8.2,12.82,12.82,0,0,1,.38-3c.13-.41.89-.75,1.42-.86.9-.18,1.9.39,2,1a20.07,20.07,0,0,1,.2,3c-.17,3.43-.45,6.85-.66,10.28-.22,3.63-.38,7.27-.62,10.89a2,2,0,0,1-1.94,2c-2.61.29-5.22.63-7.84.73-4,.17-8.09.22-12.13.21-10.51,0-21-.06-31.53-.2-3.23,0-6.45-.38-9.67-.69a2.25,2.25,0,0,1-1.95-3.09,3.06,3.06,0,0,1,.95-1.48,5.57,5.57,0,0,1,1.69-.62c4.4-1.45,6.42-4.33,6.27-9.11-.18-5.45.26-10.91.29-16.37,0-6.87-.06-13.74-.09-20.62,0-3,0-6.06,0-9.09a27.07,27.07,0,0,0-.16-4.23,5.39,5.39,0,0,0-3.65-4.47,18.46,18.46,0,0,0-3.55-.71,2.17,2.17,0,0,1-.35-.07l-.85,0a2.4,2.4,0,0,1-2.29-2.52v-.05a2.41,2.41,0,0,1,2.41-2.29c13.25.08,28.9.12,30.83.1,13.21,0,22.91,0,32.61,0a7.6,7.6,0,0,1,2.39.27,2.34,2.34,0,0,1,1.19,1.19A6,6,0,0,1,538.92,159.46Zm-49,33.27c.07-10.58.08-21.18-.69-31.75a.28.28,0,0,0-.56,0c-1,20.92-1.62,41.88.31,62.77a.22.22,0,0,0,.43,0C490.18,213.5,489.83,203,489.9,192.73Z"/>
        </g>
        <path d="M179.05,7.89c-1.33.67-2.89,1-4.07,1.82A12.62,12.62,0,0,0,172.1,13a11.43,11.43,0,0,0-1.24,3.11c-5.58,18.59-12,36.89-18.18,55.29-2.83,8.48-4.88,17.24-6.9,26a174.52,174.52,0,0,1-7.07,23.57c-2.29,5.91-4.19,12-6.26,18a3.77,3.77,0,0,1-3.26,2.69c-4.45.42-8.92.75-13.39.88-3.71.11-7.43-.06-11.14-.23-1.58-.07-2.65-3.24-1.61-4.56a5.14,5.14,0,0,1,1.46-1.6c6.09-3,7-8.28,6-14.23a119.84,119.84,0,0,0-2.41-12.07c-5.2-19.09-9.35-38.44-13.86-57.69-.25-1.07-.68-2.11-1-3.2-.74.2-1.64.17-1.9.57a16.43,16.43,0,0,0-2,3.93c-3.7,11.36-7.47,22.69-10.94,34.12C74.77,99.29,71,111,68.23,123.05c-1.47,6.46-3.29,13-7,19.12-8.54.34-17.1.69-25.67,1a4,4,0,0,1-2.14-.48,3.9,3.9,0,0,1-1.21-1.59,1.22,1.22,0,0,1,.15-1,6.27,6.27,0,0,1,1.4-1.66c8.43-6,8.54-6,6.17-16.36-1.5-6.55-3.25-13-5.06-19.51C29,81.68,23.24,60.82,17.17,40c-2-6.79-4.72-13.37-7.22-20-1.33-3.55-3.18-6.6-7-8.24C-.47,10.31-.22,7.09.31,4A3.59,3.59,0,0,1,3.06.85,31.84,31.84,0,0,1,10.81.06C22.74.79,34.67,1.48,46.63,1.44A32,32,0,0,1,51.07,2a4.06,4.06,0,0,1,2.66,3.19c.28,3.24-.77,4.69-4,5.44-1.09.26-2.22.33-3.29.62a4.34,4.34,0,0,0-2.5,3.42,32.5,32.5,0,0,0,.55,4.43Q51.1,48.57,57.83,78c.83,3.59,2.06,7.1,3.09,10.58,1.16-.21,2.22-.09,2.49-.49a37.16,37.16,0,0,0,3.3-5.78c3.71-8.59,6.09-17.63,8.58-26.63q3.27-11.86,6-23.88a42.17,42.17,0,0,0,1.13-9.94c-.1-6.06-3-9.38-9-11.1-1.07-.3-2.19-.44-3.23-.8s-1.84-3-1.54-5c.22-1.46,1.57-2.94,2.86-3,8.21-.17,16.43-.4,24.64-.48,7.47-.08,14.94,0,22.41,0a28.23,28.23,0,0,1,5.48.68,2.36,2.36,0,0,1,1.3,1.55c.85,3.38.09,5.22-2.46,6.45a45.88,45.88,0,0,0-5,2.48c-2.35,1.52-3.64,3.67-3.1,6.64C116.42,28.15,117.6,37,120,45.71c3.53,13,6.56,26.07,9.78,39.12A40.5,40.5,0,0,0,133.1,94c1-.67,1.92-1,2.13-1.5A87.32,87.32,0,0,0,138.5,83c5.19-20.26,11-40.34,17.19-60.31.88-2.84,1.37-5.81,2-8.73a3.45,3.45,0,0,0-2.24-3.48,42.43,42.43,0,0,1-4-1.75c-1.16-.71-1.6-3.6-.7-5.17a4,4,0,0,1,2.41-2C161.26.69,169.4-.72,177.64.44a3.75,3.75,0,0,1,3.28,2.61A4.54,4.54,0,0,1,179.05,7.89ZM55.16,119.58c-1.63-8.83-4.71-17.32-6.61-26.09-2-9.37-3.85-18.73-6.15-28-4.58-18.6-9.71-37.08-16.52-55a.38.38,0,0,0-.74.2c3.9,18.75,9,37.23,13.49,55.83,2.27,9.27,4.12,18.69,6.88,27.84,2.59,8.59,5.85,17,8.58,25.55A.56.56,0,0,0,55.16,119.58Zm68.58-8c-4-32.94-15.15-65.42-25-97-.15-.5-1-.44-1,.14,3.9,33,16.1,65,24.2,97.12C122.24,112.72,123.86,112.55,123.74,111.54Z"/>
        <path d="M349.05,135.89c-1.33.67-2.89,1-4.07,1.82A12.62,12.62,0,0,0,342.1,141a11.43,11.43,0,0,0-1.24,3.11c-5.58,18.59-12,36.89-18.18,55.29-2.83,8.48-4.88,17.24-6.9,26a174.52,174.52,0,0,1-7.07,23.57c-2.29,5.91-4.19,12-6.26,18a3.77,3.77,0,0,1-3.26,2.69c-4.45.42-8.92.75-13.39.88-3.71.11-7.43-.06-11.14-.23-1.58-.07-2.65-3.24-1.61-4.56a5.14,5.14,0,0,1,1.46-1.6c6.09-3,7-8.28,6-14.23a119.84,119.84,0,0,0-2.41-12.07c-5.2-19.09-9.35-38.44-13.86-57.69-.25-1.07-.68-2.11-1-3.2-.74.2-1.64.17-1.9.57a16.43,16.43,0,0,0-2,3.93c-3.7,11.36-7.47,22.69-10.94,34.12-3.58,11.78-7.4,23.49-10.12,35.54-1.47,6.46-3.29,13-7,19.12-8.54.34-17.1.69-25.67,1a4,4,0,0,1-2.14-.48,3.9,3.9,0,0,1-1.21-1.59,1.22,1.22,0,0,1,.15-1,6.27,6.27,0,0,1,1.4-1.66c8.43-6,8.54-6,6.17-16.36-1.5-6.55-3.25-13-5.06-19.51C199,209.68,193.24,188.82,187.17,168c-2-6.79-4.72-13.37-7.22-20-1.33-3.55-3.18-6.6-7-8.24-3.41-1.47-3.16-4.69-2.63-7.75a3.59,3.59,0,0,1,2.75-3.18,31.84,31.84,0,0,1,7.75-.79c11.93.73,23.86,1.42,35.82,1.38a32,32,0,0,1,4.44.52,4.06,4.06,0,0,1,2.66,3.19c.28,3.24-.77,4.69-4,5.44-1.09.26-2.22.33-3.29.62a4.34,4.34,0,0,0-2.5,3.42,32.5,32.5,0,0,0,.55,4.43q6.65,29.5,13.38,59c.83,3.59,2.06,7.1,3.09,10.58,1.16-.21,2.22-.09,2.49-.49a37.16,37.16,0,0,0,3.3-5.78c3.71-8.59,6.09-17.63,8.58-26.63q3.27-11.86,6.05-23.88a42.17,42.17,0,0,0,1.13-9.94c-.1-6.06-3-9.38-9-11.1-1.07-.3-2.19-.44-3.23-.8s-1.84-3-1.54-5.05c.22-1.46,1.57-2.94,2.86-3,8.21-.17,16.43-.4,24.64-.48,7.47-.08,14.94,0,22.41,0a28,28,0,0,1,5.47.68,2.35,2.35,0,0,1,1.31,1.55c.85,3.38.09,5.22-2.46,6.45a45.88,45.88,0,0,0-5,2.48c-2.35,1.52-3.64,3.67-3.1,6.64,1.58,8.81,2.76,17.68,5.12,26.37,3.53,13,6.56,26.07,9.77,39.12A41,41,0,0,0,303.1,222c1-.67,1.92-.95,2.13-1.5a87.32,87.32,0,0,0,3.27-9.5c5.19-20.26,11-40.34,17.19-60.31.88-2.84,1.37-5.81,2-8.73a3.45,3.45,0,0,0-2.24-3.48,42.43,42.43,0,0,1-4-1.75c-1.16-.71-1.6-3.6-.71-5.17a4,4,0,0,1,2.42-2c8.15-.89,16.29-2.3,24.53-1.14a3.75,3.75,0,0,1,3.28,2.61A4.54,4.54,0,0,1,349.05,135.89ZM225.16,247.58c-1.63-8.83-4.71-17.32-6.61-26.09-2-9.37-3.85-18.73-6.15-28-4.58-18.6-9.71-37.08-16.52-55a.38.38,0,0,0-.74.2c3.9,18.75,9,37.23,13.49,55.83,2.27,9.27,4.12,18.69,6.88,27.84,2.59,8.59,5.85,17,8.58,25.55A.56.56,0,0,0,225.16,247.58Zm68.58-8c-4-32.94-15.15-65.42-25-97-.15-.5-1-.44-1,.14,3.9,33,16.1,65,24.2,97.12C292.24,240.72,293.86,240.55,293.74,239.54Z"/>
      </g>
    </g>
  </g>
</svg>
